<?xml version="1.0" standalone="no"?>
<!DOCTYPE svg PUBLIC "-//W3C//DTD SVG 20010904//EN"
 "http://www.w3.org/TR/2001/REC-SVG-20010904/DTD/svg10.dtd">
<svg version="1.0" xmlns="http://www.w3.org/2000/svg"
 width="300.000000pt" height="300.000000pt" viewBox="0 0 300.000000 300.000000"
 preserveAspectRatio="xMidYMid meet">
<metadata>
Created by potrace 1.11, written by Peter Selinger 2001-2013
</metadata>
<g transform="translate(0.000000,300.000000) scale(0.100000,-0.100000)"
fill="#000000" stroke="none">
<path d="M618 2983 c-14 -16 -157 -567 -193 -740 -8 -42 -35 -113 -63 -170
-94 -188 -133 -344 -134 -538 -2 -226 62 -442 187 -635 69 -107 248 -282 363
-354 54 -35 92 -65 92 -75 0 -9 -7 -45 -15 -80 -33 -139 -46 -214 -38 -221 4
-4 27 -10 50 -14 38 -6 43 -4 48 16 3 13 25 136 50 273 24 138 49 273 54 300
36 180 43 270 31 355 -13 97 -61 233 -110 314 -19 31 -89 115 -156 188 -170
183 -236 300 -264 466 -22 131 10 301 161 847 10 38 19 73 19 77 0 16 -67 8
-82 -9z"/>
<path d="M837 2963 c-4 -21 -20 -189 -36 -373 -17 -184 -33 -356 -37 -381 l-6
-47 42 -7 c23 -4 43 -5 46 -2 2 2 9 55 14 118 6 63 12 137 15 164 11 110 45
521 45 543 0 19 -5 22 -39 22 -37 0 -39 -2 -44 -37z"/>
<path d="M1072 2987 c-8 -10 -11 -129 -9 -423 l2 -409 40 1 40 1 0 419 0 419
-31 3 c-17 2 -36 -3 -42 -11z"/>
<path d="M1297 2993 c-4 -8 64 -835 69 -841 1 -2 21 -1 43 3 40 7 41 7 41 49
0 23 -4 77 -9 121 -6 44 -13 116 -16 160 -3 44 -8 91 -10 105 -2 14 -11 106
-20 205 -9 99 -21 185 -27 192 -11 14 -64 18 -71 6z"/>
<path d="M1547 2993 c-4 -8 8 -67 78 -383 66 -297 74 -346 75 -440 0 -117 -18
-205 -63 -308 -45 -103 -78 -150 -191 -271 -105 -112 -149 -180 -200 -308 -46
-115 -60 -209 -53 -358 4 -100 11 -140 42 -240 39 -127 109 -285 168 -378 52
-80 170 -201 237 -242 127 -77 274 -84 408 -19 163 79 341 302 431 539 32 85
81 254 81 279 0 9 23 58 50 110 106 197 144 345 144 561 0 242 -60 436 -202
650 -89 134 -254 286 -392 361 -27 15 -52 35 -55 45 -3 10 12 96 34 190 51
217 51 219 6 219 -39 0 -50 -15 -64 -82 -11 -55 -34 -155 -66 -293 -66 -281
-78 -357 -78 -485 -1 -129 6 -165 50 -285 39 -106 102 -195 234 -331 107 -111
123 -134 168 -226 122 -252 107 -476 -54 -793 -67 -134 -128 -219 -207 -290
-192 -173 -371 -160 -556 40 -116 126 -201 291 -258 500 -37 136 -39 301 -5
420 35 124 108 247 218 366 269 294 317 500 218 929 -11 44 -23 100 -65 290
-53 239 -54 240 -96 240 -18 0 -35 -3 -37 -7z"/>
<path d="M2281 2671 c-12 -16 -21 -33 -21 -38 0 -4 22 -22 48 -39 216 -143
401 -377 492 -623 54 -148 74 -268 75 -446 0 -246 -54 -435 -187 -653 -21 -34
-38 -66 -38 -71 0 -5 16 -18 35 -29 l34 -21 44 67 c64 97 103 179 142 295 144
437 50 927 -248 1282 -73 87 -189 192 -284 256 l-72 49 -20 -29z"/>
<path d="M204 2223 c-73 -124 -125 -251 -161 -392 -24 -96 -27 -124 -27 -286
-1 -220 18 -326 91 -515 82 -213 256 -438 448 -582 107 -80 121 -87 140 -62
39 49 39 49 -48 112 -173 127 -332 316 -417 497 -176 371 -168 749 22 1125 32
63 58 115 58 117 0 5 -59 33 -69 33 -5 0 -22 -21 -37 -47z"/>
<path d="M1530 1214 c-12 -26 -28 -90 -37 -142 -13 -81 -14 -112 -4 -201 21
-191 90 -369 185 -476 l44 -50 26 24 c14 14 26 29 26 34 0 5 -16 31 -35 57
-52 71 -121 224 -141 315 -25 106 -23 264 3 362 l19 73 -20 18 c-40 36 -45 35
-66 -14z"/>
</g>
</svg>
